<?xml version="1.0" encoding="utf-8"?>
<svg viewBox="0 0 54 68" fill="currentColor" xmlns="http://www.w3.org/2000/svg" width="20px" height="20px">
  <g style="" transform="matrix(0.9204650521278382, 0, 0, 0.879511058330536, 2.226536989212036, 3.2264459133148193)">
    <path d="M -0.034 17.059 L -0.034 43.87 C -0.034 45.262 0.697 46.539 1.888 47.235 L 24.951 60.621 C 26.142 61.318 27.603 61.318 28.795 60.621 L 51.857 47.235 C 53.049 46.539 53.779 45.262 53.779 43.87 L 53.779 17.059 C 53.779 15.666 53.049 14.389 51.857 13.693 L 28.795 0.307 C 27.603 -0.389 26.142 -0.389 24.951 0.307 L 1.888 13.732 C 0.697 14.428 -0.034 15.705 -0.034 17.059 Z" stroke="currentColor" style="stroke-width: 5.5px; fill: none;"/>
    <path d="M 35.069 68.621 L 34.701 63.262 L 34.429 58.338 L 22.66 60.818" style="transform-origin: 20px 15px;" fill="currentColor"/>
    <path d="M36.7031 67.5303L36.6647 61.7271L36.7031 56.3882L23.25 59.7153" fill="currentColor"/>
    <g>
      <path d="M17.7904 18.4744C19.3279 16.9656 21.7879 16.9656 23.3254 18.4744C24.9782 20.0606 24.9782 22.6914 23.3254 24.2776C21.7879 25.7864 19.3279 25.7864 17.7904 24.2776C16.1376 22.6914 16.1376 20.0606 17.7904 18.4744Z" stroke="currentColor"/>
      <path d="M35.0873 28.5716C36.6248 27.0627 39.0848 27.0627 40.6223 28.5716C42.2751 30.1578 42.2751 32.7885 40.6223 34.3747C39.0848 35.8836 36.6248 35.8836 35.0873 34.3747C33.4345 32.7885 33.4345 30.1578 35.0873 28.5716Z" stroke="currentColor"/>
      <path d="M17.7904 39.2498C19.3279 37.741 21.7879 37.741 23.3254 39.2498C24.9782 40.836 24.9782 43.4668 23.3254 45.053C21.7879 46.5618 19.3279 46.5618 17.7904 45.053C16.1376 43.4668 16.1376 40.836 17.7904 39.2498Z" stroke="currentColor"/>
      <path d="M22.4805 23.5419L34.0117 30.2349L35.9336 29.1516L24.4023 22.4199L22.4805 23.5419Z" stroke="currentColor"/>
      <path d="M34.7805 35.1482L24.4023 41.1835L22.4805 40.0616L32.8586 34.0649L34.7805 35.1482Z" stroke="currentColor"/>
    </g>
  </g>
</svg>