<!DOCTYPE svg PUBLIC "-//W3C//DTD SVG 1.1//EN" "http://www.w3.org/Graphics/SVG/1.1/DTD/svg11.dtd">

<!-- Uploaded to: SVG Repo, www.svgrepo.com, Transformed by: SVG Repo Mixer Tools -->
<svg fill="#6B7280" width="14px" height="14px" viewBox="0 0 32 32" id="icon" xmlns="http://www.w3.org/2000/svg">

<g id="SVGRepo_bgCarrier" stroke-width="0"/>

<g id="SVGRepo_tracerCarrier" stroke-linecap="round" stroke-linejoin="round"/>

<g id="SVGRepo_iconCarrier"> <defs> <style> .cls-1 { fill: none; } </style> </defs> <title>mac--shift</title> <path d="M21,28H11a2.0023,2.0023,0,0,1-2-2V16H4a1,1,0,0,1-.707-1.707l12-12a.9994.9994,0,0,1,1.414,0l12,12A1,1,0,0,1,28,16H23V26A2.0027,2.0027,0,0,1,21,28ZM6.4141,14H11V26H21V14h4.5859L16,4.4141Z" transform="translate(0)"/> <rect id="_Transparent_Rectangle_" data-name="&lt;Transparent Rectangle&gt;" class="cls-1" width="32" height="32"/> </g>

</svg>